<?xml version="1.0" encoding="UTF-8" standalone="no"?>
<svg width="190px" height="154px" viewBox="0 0 190 154" version="1.1" xmlns="http://www.w3.org/2000/svg" xmlns:xlink="http://www.w3.org/1999/xlink">
    <!-- Generator: Sketch 3.7 (28169) - http://www.bohemiancoding.com/sketch -->
    <title>Group</title>
    <desc>Created with Sketch.</desc>
    <defs></defs>
    <g id="Page-1" stroke="none" stroke-width="1" fill="none" fill-rule="evenodd">
        <g id="menu-button" transform="translate(-111.000000, -165.000000)">
            <g id="Group" transform="translate(111.000000, 165.000000)">
                <rect id="Rectangle-1" fill-opacity="0.1" fill="#E2EEDE" x="0" y="0" width="190" height="154" rx="40"></rect>
                <path d="M17,60 L30.96875,60 L36.359375,80.90625 L41.7265625,60 L55.6484375,60 L55.6484375,94.359375 L46.9765625,94.359375 L46.9765625,68.15625 L40.25,94.359375 L32.3984375,94.359375 L25.6953125,68.15625 L25.6953125,94.359375 L17,94.359375 L17,60 Z M62.3984375,60 L90.8515625,60 L90.8515625,67.3359375 L73.0390625,67.3359375 L73.0390625,72.796875 L89.5625,72.796875 L89.5625,79.8046875 L73.0390625,79.8046875 L73.0390625,86.578125 L91.3671875,86.578125 L91.3671875,94.359375 L62.3984375,94.359375 L62.3984375,60 Z M97.15625,60 L107.070312,60 L120.007812,79.0078125 L120.007812,60 L130.015625,60 L130.015625,94.359375 L120.007812,94.359375 L107.140625,75.4921875 L107.140625,94.359375 L97.15625,94.359375 L97.15625,60 Z M159.429688,60 L170.023438,60 L170.023438,80.484375 C170.023438,82.5156352 169.707034,84.4335847 169.074219,86.2382812 C168.441403,88.0429778 167.449226,89.621087 166.097656,90.9726562 C164.746087,92.3242255 163.328132,93.2734348 161.84375,93.8203125 C159.78124,94.5859413 157.304702,94.96875 154.414062,94.96875 C152.742179,94.96875 150.917979,94.8515637 148.941406,94.6171875 C146.964834,94.3828113 145.312507,93.9179722 143.984375,93.2226562 C142.656243,92.5273403 141.441412,91.5390689 140.339844,90.2578125 C139.238276,88.9765561 138.484377,87.6562568 138.078125,86.296875 C137.421872,84.1093641 137.09375,82.1718834 137.09375,80.484375 L137.09375,60 L147.6875,60 L147.6875,80.9765625 C147.6875,82.8515719 148.207026,84.316401 149.246094,85.3710938 C150.285161,86.4257865 151.726553,86.953125 153.570312,86.953125 C155.398447,86.953125 156.832026,86.4335989 157.871094,85.3945312 C158.910161,84.3554636 159.429688,82.882822 159.429688,80.9765625 L159.429688,60 Z" id="MENU" fill="#3D6A29"></path>
            </g>
        </g>
    </g>
</svg>